<?xml version="1.0" encoding="utf-8"?>
<!-- Generator: Adobe Illustrator 15.1.0, SVG Export Plug-In . SVG Version: 6.00 Build 0)  -->
<!DOCTYPE svg PUBLIC "-//W3C//DTD SVG 1.1//EN" "http://www.w3.org/Graphics/SVG/1.1/DTD/svg11.dtd">
<svg version="1.1" id="Calque_1" xmlns="http://www.w3.org/2000/svg" xmlns:xlink="http://www.w3.org/1999/xlink" x="0px" y="0px"
	 width="471.438px" height="542.925px" viewBox="0 0 471.438 542.925" enable-background="new 0 0 471.438 542.925"
	 xml:space="preserve">
<path fill="#BF0451" d="M403.237,114.412l4.222,3.204c-0.679,8.718-1.177,16.938-1.177,22.589c0,17.824,10.694,31.489,22.973,31.489
	s8.912-17.23,24.953-17.23s17.229,15.646,17.229,18.631c0,11.289-11.023,21.373-29.706,21.373
	c-29.311,0-46.982-35.237-46.982-51.606c0-16.37,1.227-17.293,3.028-28.152L403.237,114.412z"/>
<path fill="#FFB600" d="M329.819,25.352C264.905-6.376,210.17-1.925,176.557,4.893C142.944,11.711,37.584,95.198,37.584,214.853
	c0,90.13,60.57,128.293,60.57,128.293s-76.181-31.687-76.181-135.725c0-109.847,84.62-173.057,84.62-173.057
	C42.596,74.216,0,145.208,0,226.151c0,124.688,101.08,225.766,225.768,225.766c72.164,0,136.419-33.857,177.749-86.554
	c0,0,24.451-31.329,24.451-69.238c0-99.813-69.711-88.455-69.711-128.893c0-30.631,7.395-53.305,31.159-53.305
	s38.552,18.484,38.552,18.484c0-19.46-18.979-49.44-47.006-67.667c-1.178-0.765-11.979,35.087-11.12,43.118
	c-8.024-2.981-10.036-6.063-10.189-8.982c2.467-18.123,10.849-30.557,16.32-36.786c-13.198-8.881-29.994-13.124-44.649-13.124
	c-52.811,0-77.632,57.564-88.193,57.564c-10.563,0-17.362-15.315-17.362-15.315c0,33.799,22.643,53.339,22.643,53.339
	s26.164,23.574,46.435,53.494c14.949,17.48,23.981,40.173,23.981,64.979c0,55.248-44.787,100.034-100.033,100.034
	c-66.587,0-116.019-47.228-116.019-131.791C102.774,71.718,268.682,25.352,329.819,25.352z"/>
<path fill="#7A2605" d="M329.819,290.101c0,56.392-57.765,119.191-138.665,119.751C81.576,409.852,0,350.839,0,226.15
	C0,145.208,42.596,74.216,106.593,34.365c0,0-84.62,63.21-84.62,173.057c0,104.037,76.181,135.725,76.181,135.725
	s-60.57-38.163-60.57-128.293c0-119.654,105.36-203.142,138.973-209.959c33.613-6.818,88.348-11.27,153.262,20.459
	c-61.138,0-227.045,46.366-227.045,205.921c0,84.563,49.431,131.791,116.019,131.791c55.246,0,100.033-44.787,100.033-100.035
	c0-24.805-9.032-47.498-23.981-64.978C294.845,198.052,329.819,236.914,329.819,290.101z"/>
<path fill="#BF0451" d="M393.013,59.54c-15.843,0-30.184,28.253-30.97,37.727c-0.452,5.435,7.799,10.595,7.799,10.595
	c0-18.616,15.222-31.138,22.648-31.138c4.014,0,8.346,4.303,8.346,4.303l0.006-0.004l0,0c3.244,3.275,6.249,6.672,8.986,10.125
	c0.792-8.309,1.404-14.571,1.404-15.963C411.232,71.225,408.856,59.54,393.013,59.54z"/>
<path fill="#FFFFFF" d="M343.318,81.069c0,11.302-3.167,20.464-16.322,20.464c-13.156,0-16.323-9.162-16.323-20.464
	s7.308-20.464,16.323-20.464S343.318,69.767,343.318,81.069z"/>
<path fill="#7A2605" d="M337.73,79.515c0,7.433-2.082,13.458-10.734,13.458s-10.735-6.026-10.735-13.458
	c0-7.434,4.806-13.459,10.735-13.459S337.73,72.081,337.73,79.515z"/>
<path fill="#FFFFFF" d="M321.241,70.398c-3.662,3.561-3.862,8.551-0.887,9.065c2.976,0.513,2.919-2.846,5.14-5.762
	c2.221-2.916,5.621-3.832,3.815-4.929C327.506,67.675,323.798,67.91,321.241,70.398z"/>
<ellipse opacity="0.26" fill="#DEDEDE" cx="235.719" cy="507.938" rx="213.984" ry="34.987"/>
<path fill="#FFFFFF" d="M343.318,81.069c0,11.302-3.167,20.464-16.322,20.464c-13.156,0-16.323-9.162-16.323-20.464
	s7.308-20.464,16.323-20.464S343.318,69.767,343.318,81.069z"/>
<path fill="#7A2605" d="M337.73,79.58c0,7.434-2.083,13.459-10.734,13.459c-8.652,0-10.735-6.025-10.735-13.459
	c0-7.433,4.806-13.458,10.735-13.458C332.925,66.121,337.73,72.146,337.73,79.58z"/>
<path fill="#FFFFFF" d="M322.357,71.156c-4.304,3.615-4.924,9.075-1.699,9.876c3.225,0.802,3.433-2.889,6.104-5.911
	c2.67-3.022,6.474-3.754,4.581-5.103C329.449,68.67,325.363,68.631,322.357,71.156z"/>
</svg>
